<?xml version="1.0" encoding="utf-8"?>
<!-- Generator: Adobe Illustrator 24.1.2, SVG Export Plug-In . SVG Version: 6.00 Build 0)  -->
<svg version="1.1" id="Layer_1" xmlns="http://www.w3.org/2000/svg" xmlns:xlink="http://www.w3.org/1999/xlink" x="0px" y="0px"
	 viewBox="0 0 20 20.1" style="enable-background:new 0 0 20 20.1;" xml:space="preserve">
<style type="text/css">
	.st0{fill:#FCF281;}
</style>
<g>
	<path class="st0" d="M13.9,18c-0.2-2.8-1.3-5.4-3.1-7.4L15,6.4L13.6,5L9.4,9.1c-2-1.7-4.6-2.8-7.4-3V0H0v20h20v-2H13.9z M2,8.1
		c2.3,0.2,4.4,1.1,6,2.5l-4,4L5.4,16l4-4c1.4,1.7,2.3,3.8,2.5,6H2V8.1z"/>
	<rect x="15.1" y="2" transform="matrix(0.7071 -0.7071 0.7071 0.7071 2.823 12.885)" class="st0" width="3.7" height="2"/>
</g>
</svg>
