<?xml version="1.0" encoding="utf-8"?>
<!-- Generator: Adobe Illustrator 24.1.0, SVG Export Plug-In . SVG Version: 6.00 Build 0)  -->
<svg version="1.1" id="Layer_1" xmlns="http://www.w3.org/2000/svg" xmlns:xlink="http://www.w3.org/1999/xlink" x="0px" y="0px"
	 viewBox="0 0 103.1 221.5" style="enable-background:new 0 0 103.1 221.5;" xml:space="preserve">
<g>
	<path d="M0,81.6c0,7,2.7,14.5,8.3,21.6c5.6,7.1,14,14.1,26.2,21.4c1.3,0.8,2.7,1.1,4.1,1.1c2.7,0,5.4-1.4,6.9-3.9
		c2.3-3.8,1-8.7-2.8-11c-11-6.5-17.9-12.6-21.8-17.5c-3.9-5-4.9-8.7-4.9-11.7c0-2.7,0.8-5.1,2.4-7.7c0,0,0,0,0,0l1.7,1
		c-1.4,2.3-2.1,4.5-2.1,6.7c0,2,0.5,5.4,4.5,10.5c1.3,1.7,3.3,3.8,6.1,6.3c0.4,0,0.8,0.1,1.2,0.1c5.9,0,11.1-2.7,14.4-7
		c-2.3,4.9-6.8,8.6-12.3,9.7c3.1,2.4,6.9,5.1,11.7,7.9c2.3,1.4,3.9,3.5,4.6,6.1c0.7,2.6,0.3,5.3-1.1,7.6c-1.8,3-5.1,4.9-8.6,4.9
		c-1.8,0-3.6-0.5-5.1-1.4c-9.2-5.5-16.4-10.9-22-16.5c-0.5,2.6-0.8,5.4-0.8,8.2c0,7.6,2.1,13.6,5.7,18.2l8,72.7
		c0,5.1,5.1,9.3,11.5,9.3c6.3,0,11.5-4.2,11.5-9.3l0-60.7c0.7,0,1.4,0,2.1,0c0.7,0,1.4,0,2.1,0l0,60.7c0,5.1,5.1,9.3,11.5,9.3
		c6.3,0,11.5-4.2,11.5-9.3l8-72.7c3.6-4.5,5.7-10.5,5.7-18.2c0-7.8-2.2-15.1-5.9-21.2c-3.2,3-7.4,4.8-12.1,4.8
		c-7.1,0-13.1-4.2-16-10.1c3.4,4.3,8.6,7,14.4,7c10.1,0,18.4-8.2,18.4-18.4c0-0.6,0-1.2-0.1-1.8c0.6,1.8,0.9,3.7,0.9,5.6
		c0,4.2-1.5,8.1-4,11.2c0,0.2,0.1,0.5,0.1,0.7c3.9,6.4,6.2,14,6.2,22.2c0,5.3-1,9.9-2.9,14c0.9,3.4,4,5.9,7.7,5.9c0.1,0,0.1,0,0.2,0
		c4.4-0.1,7.9-3.8,7.8-8.2C102,91.2,95.7,70.8,88.2,59c-3.7-5.9-7.9-9.5-11.6-11.5c-3.7-2-6.9-2.3-8.4-2.3c-0.3,0-0.5,0-0.7,0
		c-0.2,0-0.4,0-0.5,0.1c-0.1,0-0.2,0-0.3,0h-0.5C63.8,55.4,54.8,62.9,44,62.9c-9.6,0-17.8-6-21.2-14.4c-2.4,1.4-5.4,3.5-8.5,6.2
		c-3.3,2.8-6.7,6.4-9.5,10.8c0,0,0,0,0,0C2,69.9,0,75.4,0,81.6z"/>
	<circle cx="44" cy="40" r="20.9"/>
	<circle cx="48.9" cy="4" r="4"/>
	<circle cx="64.4" cy="4" r="4"/>
	<circle cx="79.9" cy="4" r="4"/>
</g>
</svg>
