<?xml version="1.0" encoding="utf-8"?>
<!-- Generator: Adobe Illustrator 24.1.2, SVG Export Plug-In . SVG Version: 6.00 Build 0)  -->
<svg version="1.1" id="Layer_1" xmlns="http://www.w3.org/2000/svg" xmlns:xlink="http://www.w3.org/1999/xlink" x="0px" y="0px"
	 viewBox="0 0 100 89.1" style="enable-background:new 0 0 100 89.1;" xml:space="preserve">
<style type="text/css">
	.st0{fill:#BF9AC8;}
</style>
<path class="st0" d="M19.5,57.7l0,0.1c0,0,0,0,0,0.1c-1.4,7.9-1.4,16.2,0.1,24.3c0.1,0.5,0.5,0.8,1,0.8c0.1,0,0.1,0,0.2,0
	c0.5-0.1,0.9-0.6,0.8-1.2c-1.4-7.5-1.5-15.2-0.3-22.5c2.3,0.6,8,2.4,13.4,6.1c2.7,1.8,4.6,3.6,6.1,5.1c2.7,3.2,4.9,10.8,4.9,12.2
	c0,0.6,0.4,1,1,1s1-0.4,1-1c0-1.1-0.8-4.4-2.1-7.6c0.9,0.6,1.8,0.9,3,0.9H50h1.3c1.2,0,2.1-0.3,3-0.9c-1.3,3.3-2.1,6.6-2.1,7.6
	c0,0.6,0.4,1,1,1s1-0.4,1-1c0-1.5,2.2-9.1,4.9-12.2c1.5-1.6,3.4-3.3,6.1-5.1c5.5-3.7,11.2-5.5,13.4-6.1c1.2,7.3,1.1,15-0.3,22.5
	c-0.1,0.5,0.3,1.1,0.8,1.2c0.1,0,0.1,0,0.2,0c0.5,0,0.9-0.3,1-0.8c1.5-8.1,1.5-16.4,0.1-24.3c0,0,0,0,0-0.1l0-0.1
	C79.3,51,77,44.6,73.8,38.9c-5.4-9.4-5.8-15.9-5.8-21.2c0-4.3,0.6-8.4,1.8-12.4c0.2-0.5-0.1-1.1-0.7-1.2c-0.5-0.2-1.1,0.1-1.2,0.7
	c-1.3,4.1-1.9,8.5-1.9,13c0,5.6,0.5,12.4,6.1,22.2c2.3,4,4,8.4,5.3,13c-2.7,1.4-14.5,6.9-26.3,7.3H50h-1
	c-11.8-0.4-23.6-5.9-26.3-7.3c1.3-4.6,3-9,5.3-13c5.6-9.9,6.1-16.6,6.1-22.2c0-4.5-0.6-8.8-1.9-13C32,4.1,31.4,3.8,30.9,4
	c-0.5,0.2-0.8,0.7-0.7,1.2c1.2,3.9,1.8,8.1,1.8,12.4c0,5.3-0.5,11.8-5.8,21.2C23,44.6,20.7,51,19.5,57.7z M48.9,62.2H50h1.1
	c11.7-0.4,23-5.5,26.6-7.2l0.6,2.4C76,58,70,59.8,64.2,63.7c-2.3,1.6-4.1,3.1-5.6,4.5c-0.3,0.2-0.6,0.5-0.9,0.9
	c-0.6,0.6-1.1,1.1-1.5,1.6c-2.1,2.3-3.2,3.4-4.9,3.4H50h-1.3c-1.7,0-2.8-1.1-4.9-3.4c-0.5-0.5-1-1-1.5-1.6c-0.3-0.3-0.5-0.5-0.8-0.8
	c-1.5-1.4-3.3-3-5.7-4.6C30,59.8,24,58,21.7,57.4l0.6-2.4C25.8,56.7,37.2,61.8,48.9,62.2z"/>
<path class="st0" d="M49.8,37c0.6,0,1.2-0.5,1.2-1.2s-0.5-1.2-1.2-1.2s-1.2,0.5-1.2,1.2S49.2,37,49.8,37z M49.8,35
	c0.5,0,0.8,0.4,0.8,0.8s-0.4,0.8-0.8,0.8S49,36.3,49,35.9S49.4,35,49.8,35z"/>
<path class="st0" d="M20,24.4c0,0.4,0.2,0.7,0.5,0.9c0.2,0.1,0.3,0.1,0.5,0.1c0.2,0,0.4,0,0.5-0.1l5.7-3.4c0.3-0.2,0.5-0.5,0.5-0.9
	s-0.2-0.7-0.5-0.9l-5.7-3.4c-0.3-0.2-0.7-0.2-1,0C20.2,17,20,17.3,20,17.7v2.4H8.6c-0.6,0-1,0.4-1,1s0.4,1,1,1H20V24.4z M22,19.4
	l2.7,1.6L22,22.7V19.4z"/>
<path class="st0" d="M91.4,20.1H80v-2.4c0-0.4-0.2-0.7-0.5-0.9c-0.3-0.2-0.7-0.2-1,0l-5.7,3.4c-0.3,0.2-0.5,0.5-0.5,0.9
	s0.2,0.7,0.5,0.9l5.7,3.4c0.2,0.1,0.3,0.1,0.5,0.1c0.2,0,0.3,0,0.5-0.1c0.3-0.2,0.5-0.5,0.5-0.9v-2.4h11.4c0.6,0,1-0.4,1-1
	S91.9,20.1,91.4,20.1z M78,22.7l-2.7-1.6l2.7-1.6V22.7z"/>
</svg>
