<?xml version="1.0" encoding="utf-8"?>
<!-- Generator: Adobe Illustrator 24.1.0, SVG Export Plug-In . SVG Version: 6.00 Build 0)  -->
<svg version="1.1" id="Layer_1" xmlns="http://www.w3.org/2000/svg" xmlns:xlink="http://www.w3.org/1999/xlink" x="0px" y="0px"
	 viewBox="0 0 72.8 229.3" style="enable-background:new 0 0 72.8 229.3;" xml:space="preserve">
<style type="text/css">
	.st0{fill:#99FFCC;}
</style>
<g>
	<path class="st0" d="M54.3,50.8c-5-2.6-11-3.9-17.9-3.9l0,0c-6.9,0-12.9,1.3-17.9,3.9C11,54.6,6.2,61.2,3.5,68.4
		C0.8,75.7,0,83.7,0,91.8c0,14.1,2.6,28.6,3.9,38.9c0.3,2.6,2.2,4.6,4.6,5.1c-0.2-2.4-0.4-5.2-0.4-8.5c0-2.7,0.2-4.8,0.6-6.3
		c0.6-4.8,2.6-8.2,4.5-11.6c-0.7-5.9-1.2-11.9-1.2-17.6c0-3.6,0.2-7.1,0.6-10.3c-1.1-1.8-1.8-3.9-1.8-6.2c0-1.3,0.2-2.6,0.6-3.7
		c0,0.4-0.1,0.8-0.1,1.2c0,6.7,5.4,12.1,12.1,12.1c3.9,0,7.3-1.8,9.5-4.6C31,84.2,27,87,22.4,87c-1.6,0-3.2-0.3-4.6-1
		c1.4,3.5,2.2,7.3,2,11c0,0.1,0,0.1,0,0.2c-0.8,10.4-7.9,14.5-9.2,24.2c-0.3,1.3-0.5,3.2-0.5,5.9c0,17.8,4.4,19.6,4.7,36.1v7.3v46
		c0,5.5,4.5,10,10,10s10-4.5,10-10v-78.3v-3.7c0-0.2,0-0.3,0-0.5h3.4c0,0.2,0,0.3,0,0.5v3.7v78.3c0,5.5,4.5,10,10,10s10-4.5,10-10
		v-46v-7.3c0.3-16.5,4.7-18.3,4.7-36.1c0-2.7-0.2-4.6-0.5-5.9c-1.3-9.7-8.4-13.9-9.2-24.2c0-0.1,0-0.1,0-0.2
		c-0.3-3.8,0.6-7.6,2-11.1c-1.5,0.7-3.1,1-4.8,1c-4.7,0-8.7-2.7-10.5-6.7c2.2,2.8,5.7,4.6,9.5,4.6c6.7,0,12.1-5.4,12.1-12.1
		c0-0.4,0-0.8-0.1-1.2c0.4,1.2,0.6,2.4,0.6,3.7c0,2.2-0.6,4.3-1.7,6C60.8,84.5,61,88,61,91.7c0,5.7-0.5,11.7-1.2,17.6
		c1.9,3.3,3.8,6.8,4.5,11.6c0.4,1.5,0.6,3.6,0.6,6.3c0,3.3-0.2,6.1-0.4,8.5c2.4-0.5,4.3-2.5,4.6-5.1c1.3-10.3,3.8-24.8,3.9-38.9
		c0-10.8-1.4-21.5-6.9-30.3C63.2,57.2,59.3,53.4,54.3,50.8z"/>
	<ellipse class="st0" cx="36.4" cy="21" rx="21" ry="21"/>
</g>
</svg>
