<?xml version="1.0" encoding="utf-8"?>
<!-- Generator: Adobe Illustrator 24.1.2, SVG Export Plug-In . SVG Version: 6.00 Build 0)  -->
<svg version="1.1" id="Layer_1" xmlns="http://www.w3.org/2000/svg" xmlns:xlink="http://www.w3.org/1999/xlink" x="0px" y="0px"
	 viewBox="0 0 67 29.3" style="enable-background:new 0 0 67 29.3;" xml:space="preserve">
<style type="text/css">
	.st0{fill-rule:evenodd;clip-rule:evenodd;fill:#77C47C;}
</style>
<path class="st0" d="M9,27c-5,0-9-4-9-9c0-1.7,1-4.3,2.7-7.6c0.4-0.8,0.9-1.7,1.4-2.5C5,6.3,6,4.8,6.9,3.3c0.3-0.5,0.6-1,0.9-1.4
	C8,1.7,8.1,1.5,8.2,1.4c0.4-0.6,1.2-0.6,1.6,0c0.1,0.1,0.2,0.3,0.4,0.5c0.3,0.4,0.6,0.9,0.9,1.4c0.9,1.5,1.9,3,2.8,4.5
	c0.5,0.9,1,1.7,1.4,2.5C17,13.7,18,16.3,18,18C18,23,14,27,9,27z M8.6,4.4C7.7,5.9,6.7,7.4,5.9,8.8c-0.5,0.8-1,1.7-1.4,2.5
	C2.9,14.3,2,16.7,2,18c0,3.9,3.1,7,7,7s7-3.1,7-7c0-1.3-0.9-3.7-2.5-6.7c-0.4-0.8-0.9-1.6-1.4-2.5c-0.9-1.5-1.8-3-2.7-4.4
	C9.3,4.2,9.1,4,9,3.8C8.9,4,8.7,4.2,8.6,4.4z M57,28c-5.5,0-10-4.5-10-10c0-2,1-4.6,2.8-8.1c0.4-0.8,0.9-1.7,1.4-2.6
	c0.9-1.5,1.8-3.1,2.8-4.6c0.3-0.5,0.6-1,0.9-1.4c0.2-0.3,0.3-0.4,0.4-0.5c0.8-1.2,2.5-1.2,3.3,0C58.7,1,58.8,1.1,59,1.4
	c0.3,0.4,0.6,0.9,0.9,1.4c1,1.5,1.9,3,2.8,4.6c0.5,0.9,1,1.7,1.4,2.6C66,13.4,67,16,67,18C67,23.5,62.5,28,57,28z M33,27
	c-5,0-9-4-9-9c0-1.7,1-4.3,2.7-7.6c0.4-0.8,0.9-1.7,1.4-2.5C29,6.3,30,4.8,30.9,3.3c0.3-0.5,0.6-1,0.9-1.4c0.2-0.2,0.3-0.4,0.4-0.5
	c0.4-0.6,1.2-0.6,1.6,0c0.1,0.1,0.2,0.3,0.4,0.5c0.3,0.4,0.6,0.9,0.9,1.4c0.9,1.5,1.9,3,2.8,4.5c0.5,0.9,1,1.7,1.4,2.5
	C41,13.7,42,16.3,42,18C42,23,38,27,33,27z M38.7,13.8c-0.3-0.8-0.7-1.6-1.2-2.4c-0.3-0.5-0.6-1.1-0.9-1.6l-10.5,9.7
	c0.3,1.5,1.1,2.9,2.3,3.9L38.7,13.8z M39.5,15.7l-9.4,8.7C31,24.8,32,25,33,25c3.9,0,7-3.1,7-7C40,17.4,39.8,16.7,39.5,15.7z
	 M35.6,7.9c-0.7-1.2-1.4-2.4-2.2-3.5C33.3,4.2,33.1,4,33,3.8c-0.1,0.2-0.3,0.4-0.4,0.6c-0.9,1.4-1.9,2.9-2.7,4.4
	c-0.5,0.8-1,1.7-1.4,2.5c-1.1,2.1-1.9,3.9-2.3,5.3L35.6,7.9z"/>
</svg>
