<?xml version="1.0" encoding="utf-8"?>
<!-- Generator: Adobe Illustrator 24.1.0, SVG Export Plug-In . SVG Version: 6.00 Build 0)  -->
<svg version="1.1" id="Layer_1" xmlns="http://www.w3.org/2000/svg" xmlns:xlink="http://www.w3.org/1999/xlink" x="0px" y="0px"
	 viewBox="0 0 720 900" style="enable-background:new 0 0 720 900;" xml:space="preserve">
<style type="text/css">
	.st0{fill:#66CCFF;}
</style>
<g>
	<path class="st0" d="M213.9,60.9c23-8,46.1-16,69.1-23.9c13.7,37.4,28.1,74.5,44.2,110.9c9.5,21.1,20.4,41.6,32.8,61.1
		c18.6-23.5,31.6-50.7,42.6-78.4c11.9-29.8,22.5-60.1,32.4-90.6c22.8,8.5,45.6,17,68.4,25.5c3,1.1,6.3,2,8.9,4.2
		c6.7,5.6,13,12,17.2,19.8c6.7,13,8.4,28,8.5,42.5c-10.6,3.9-21,9-29.6,16.4c-8.1,7-15,15.3-21.2,24c-1.4,2-3,4-3.6,6.5
		c-5.2,21.8-11,43.5-17.8,64.9c-6.8,22.9-16.5,44.8-28.8,65.3c22,34.4,41.8,70.1,58.6,107.3c13.7,31,25.1,63,36.3,95
		C547.7,557.4,562,604,575,651c-10.7,8.5-24,14.9-38,14.5c-11.8-1.1-22.3-7.2-32.1-13.5c-1.3-4.7-2.7-9.4-4-14.1
		c-9,1.5-18.9,5-23.5,13.5c-1.6,3-3.7,6-7.1,7.1c-6.8,2.4-14,0.1-20.4-2.4c0.7,4,1.3,8,2.1,12c-3.8,3.6-8.8,6.2-14.1,6.4
		c-8.6,0.4-16.6-4.1-23.1-9.4c-4.9-3.8-8.4-9.2-14.3-11.6c-13.8-5.8-29-4.8-43.6-4.5c-13.4,0.6-27.6,2.2-39,9.8
		c-5.6,3.4-7.7,10.8-14.2,12.9c-10.5,3.6-21.8,0.2-31.7-3.7c0.7-2.7,1.3-5.3,2-8c-9.6,0.2-19.6-1.2-28-6.1
		c-7.7-4.4-15-9.4-21.9-14.9c0.4,7.4-0.1,15.9-5.6,21.5c-5,5.1-12.9,4.9-19.4,3.6c-15.3-3.6-28.4-13-40.1-23.1
		c11.9-43.2,24.6-86.1,38.3-128.7c12-36.6,24.3-73.2,39.5-108.6c13.7-31.2,29.4-61.8,49.2-89.7c-9.9-15-18.7-30.8-25.7-47.3
		c-9.9-24.2-15.7-49.9-19.4-75.7c-0.7-4.1-0.3-8.6-2.4-12.3c-4.3-8.5-10-16.6-17.6-22.4c-10.7-8.2-22.6-14.8-34.9-20.2
		c-1-12.3-0.9-24.8,1.5-37c2.5-13.2,10.1-24.8,19-34.5C208.4,62.4,211.4,61.9,213.9,60.9z"/>
</g>
</svg>
