<?xml version="1.0" encoding="utf-8"?>
<!-- Generator: Adobe Illustrator 24.1.0, SVG Export Plug-In . SVG Version: 6.00 Build 0)  -->
<svg version="1.1" id="Layer_1" xmlns="http://www.w3.org/2000/svg" xmlns:xlink="http://www.w3.org/1999/xlink" x="0px" y="0px"
	 viewBox="0 0 100 101.5" style="enable-background:new 0 0 100 101.5;" xml:space="preserve">
<style type="text/css">
	.st0{fill:#FFFF99;}
</style>
<path class="st0" d="M14.7,52.5C6.6,52.5,0,59.1,0,67.3c0,6,3.6,11.1,8.7,13.4L15.3,98h10.6l-6.3-16.6c9.2-2,22.6-8,22.6-8l7.5,5.8
	V55.4l-7.5,6.2C42.2,61.6,20,52.5,14.7,52.5z"/>
<path class="st0" d="M100,41.6c-9.3,2.3-7.7-13.2-9.5-18.6C88.6,17.6,79.9-6.5,63.9,2c-9.4-4.5-18.9,4.7-22,14.6
	c-3.8,12.2-1,26.7-13.8,32.7c2.5,0.7,6.4-2,6.4-2s0.7,1.6-0.4,2.2c2,1,5.6,1.1,5.6,1.1s-1.5,3.8-3.3,5.9c0.5,0.2,1,0.4,1.5,0.6
	c1-0.6,2.2-1.4,3.1-2c-0.3,0.3-1,1.3-1.9,2.4c1.1,0.4,2,0.8,2.7,1.1l6.3-5.2c0.3-7.2,7.2-36.1,9.7-36.5c6.2,8.9,15.4,21.6,19.8,25.2
	c11.6,10-2.6,18.3-5.6,20.4c-3,3.5,4.7,26.8,9.1,28.7c0.3,0.7,10.4,8.7,10.4,8.7c-0.6-5-0.7-8.6-0.7-8.6s0.7,2.1,3,3.3
	c-3-12.6-4.4-22.7-4.4-22.7s2.4,3.5,4.9,2.7c-2.4-2.3-4.3-8.1-4.3-8.1s3.1,2.8,4.6,2.5c-1.9-2.8-4.7-14-4.7-14s4.9,4.6,7.2,4.3
	c-2.1-1.4-5.8-10-5.8-10s4.1,3.4,5.7,2.2c-2.6-1-4.4-4.1-4.4-4.1s5.6,0.9,7.3-0.4c-4.3-0.4-5.1-3.4-5.1-3.4S99,43.4,100,41.6z"/>
<path class="st0" d="M54.3,61c0.1,0,0.2,0,0.3-0.1l7.2-3.8c0.3-0.1,0.4-0.5,0.2-0.7s-0.5-0.4-0.7-0.2L54,59.9
	c-0.3,0.1-0.4,0.5-0.2,0.7C53.9,60.9,54.1,61,54.3,61z"/>
<path class="st0" d="M61.8,78.2l-7.2-3.8c-0.3-0.1-0.6,0-0.7,0.2c-0.1,0.3,0,0.6,0.2,0.7l7.2,3.8c0.1,0,0.2,0.1,0.3,0.1
	c0.2,0,0.4-0.1,0.5-0.3C62.1,78.7,62,78.4,61.8,78.2z"/>
<path class="st0" d="M62.6,68h-7.5c-0.3,0-0.5,0.2-0.5,0.5s0.2,0.5,0.5,0.5h7.5c0.3,0,0.5-0.2,0.5-0.5S62.9,68,62.6,68z"/>
</svg>
