<?xml version="1.0" encoding="utf-8"?>
<!-- Generator: Adobe Illustrator 24.1.0, SVG Export Plug-In . SVG Version: 6.00 Build 0)  -->
<svg version="1.1"
	 id="Layer_1" xmlns:cc="http://creativecommons.org/ns#" xmlns:dc="http://purl.org/dc/elements/1.1/" xmlns:inkscape="http://www.inkscape.org/namespaces/inkscape" xmlns:rdf="http://www.w3.org/1999/02/22-rdf-syntax-ns#" xmlns:sodipodi="http://sodipodi.sourceforge.net/DTD/sodipodi-0.dtd" xmlns:svg="http://www.w3.org/2000/svg"
	 xmlns="http://www.w3.org/2000/svg" xmlns:xlink="http://www.w3.org/1999/xlink" x="0px" y="0px" viewBox="0 0 16 16.7"
	 style="enable-background:new 0 0 16 16.7;" xml:space="preserve">
<style type="text/css">
	.st0{fill:#FBB47F;}
</style>
<g transform="translate(0,-1036.3622)">
	<g transform="translate(0,0.0198085)">
		<g transform="translate(1100.5659,-21.019708)">
			<g transform="translate(-116.0644,4.9999995)">
				<path class="st0" d="M-973.6,1052.4l-0.8,0.1l0,0l0,0l-0.1,0l0.3,1l0.1,0l0.8-0.1L-973.6,1052.4z M-972.4,1052.5l-0.3,1l0.8,0.2
					l0.1,0l0.5-0.9l-0.1-0.1l0,0l0,0L-972.4,1052.5z M-975.7,1052.9l-0.5,0.3l0,0l0,0l-0.3,0.2l0.6,0.8l0.3-0.2l0.5-0.3
					L-975.7,1052.9z M-970.5,1053.4l-0.6,0.8l0.4,0.3l0.2,0.3l0.8-0.6l-0.3-0.3l0,0l0,0L-970.5,1053.4z M-977.4,1054.3l-0.2,0.3l0,0
					l0,0l-0.3,0.6l0.9,0.5l0.3-0.5l0.2-0.2L-977.4,1054.3z M-969.1,1055.1l-0.9,0.5l0.1,0.2l0.2,0.6l1-0.3l-0.2-0.6l0,0l0,0
					L-969.1,1055.1z M-968.5,1057.2l-1,0.1l0,0.1l-0.1,0.8l1,0.1l0.1-0.9l0-0.1l0,0L-968.5,1057.2z M-984.5,1057.4v0.5v0.5h0.5v0
					h0.5v-1h-0.5H-984.5z M-982.5,1057.4v1h1v-1H-982.5z M-980.5,1057.4v1h1v-1H-980.5z M-977.5,1057.8L-977.5,1057.8L-977.5,1057.8
					L-977.5,1057.8z M-977.4,1058.3h2.9v2.9c-0.1,0-0.1,0-0.2,0c-0.1,0-0.3-0.1-0.4-0.1c0,0-0.1,0-0.1-0.1c0,0,0,0-0.1,0l-0.6-0.3
					l-0.1-0.1l0,0c-0.1,0-0.1-0.1-0.2-0.1h0c-0.1-0.1-0.2-0.2-0.3-0.3c-0.1-0.1-0.1-0.1-0.2-0.2l0,0l-0.1-0.2c0-0.1-0.1-0.1-0.1-0.2
					l-0.2-0.4l0,0c0,0,0,0,0,0c-0.1-0.1-0.1-0.2-0.2-0.4C-977.3,1058.7-977.3,1058.5-977.4,1058.3
					C-977.4,1058.4-977.4,1058.4-977.4,1058.3L-977.4,1058.3z M-969.8,1059l-0.3,0.6l-0.1,0.1l0.8,0.6l0.1-0.2l0,0l0,0l0.4-0.7
					L-969.8,1059z M-984.5,1059.4v1h1v-1H-984.5z M-970.9,1060.4l-0.4,0.3l-0.4,0.2l0.5,0.9l0.4-0.2l0,0l0,0l0.4-0.3L-970.9,1060.4z
					 M-972.5,1061.2l-0.2,0.1l-0.7,0.1l0.1,1l0.7-0.1h0.1l0,0l0.3-0.1L-972.5,1061.2z M-984.5,1061.4v1h1v-1H-984.5z M-984.5,1063.4
					v1h1v-1H-984.5z M-974.5,1063.4v1h1v-1H-974.5z M-984.5,1065.3v1h1v-1H-984.5z M-974.5,1065.4v1h1v-1H-974.5z M-984.5,1067.3
					v0.5v0.5h0.5h0.5v-0.5h0v-0.5H-984.5z M-982.5,1067.4v1h1v-1H-982.5z M-980.5,1067.4v1h1v-1H-980.5z M-978.5,1067.4v1h1v-1
					H-978.5z M-976.5,1067.4v1h1v-1H-976.5z M-974.5,1067.4v1h0.5h0.5v-0.5v-0.5h-0.5v0H-974.5z"/>
			</g>
		</g>
	</g>
</g>
</svg>
