<?xml version="1.0" encoding="utf-8"?>
<!-- Generator: Adobe Illustrator 24.1.2, SVG Export Plug-In . SVG Version: 6.00 Build 0)  -->
<svg version="1.1" id="Layer_1" xmlns="http://www.w3.org/2000/svg" xmlns:xlink="http://www.w3.org/1999/xlink" x="0px" y="0px"
	 viewBox="0 0 64 64" style="enable-background:new 0 0 64 64;" xml:space="preserve">
<style type="text/css">
	.st0{fill:#F89C45;}
</style>
<g>
	<path class="st0" d="M26.1,56.6H38c-0.9,3.2-2.6,4.2-5.9,4.2S27,59.8,26.1,56.6z M25.6,53.6h12.9c0.1-0.7,0.1-1.4,0.2-2.2H25.5
		C25.5,52.2,25.5,52.9,25.6,53.6z M32.1,12.1c-5.4-0.4-10.7,2.2-13.5,6.9c-2.7,4.3-2.2,9.7-0.8,14.2c1.9,5.9,6.4,8.7,7.5,15.3H39
		c1.1-6.6,5.6-9.3,7.5-15.3c1.4-4.5,1.9-9.9-0.8-14.2C42.7,14.3,37.5,11.7,32.1,12.1z M25.2,48.4h-1.1c-0.8,0-1.5,0.7-1.5,1.5
		s0.7,1.5,1.5,1.5h1.3c0-0.3,0-0.6,0-0.9C25.4,49.8,25.3,49.1,25.2,48.4L25.2,48.4z M38.7,51.4H40c0.8,0,1.5-0.7,1.5-1.5
		s-0.7-1.5-1.5-1.5H39c-0.1,0.7-0.2,1.4-0.2,2.1C38.7,50.8,38.7,51.1,38.7,51.4L38.7,51.4z M25.1,53.6c-0.8,0-1.5,0.7-1.5,1.5
		s0.7,1.5,1.5,1.5h1c-0.3-1-0.4-2-0.5-3H25.1z M39,56.6c0.8,0,1.5-0.7,1.5-1.5s-0.7-1.5-1.5-1.5h-0.5c-0.1,1-0.3,2-0.5,3H39z
		 M32.1,9.6c0.8,0,1.5-0.7,1.5-1.5V4.6c0-0.8-0.7-1.5-1.5-1.5s-1.5,0.7-1.5,1.5v3.5C30.6,8.9,31.2,9.6,32.1,9.6L32.1,9.6z
		 M50.4,10.8c-0.6-0.6-1.5-0.6-2.1,0l-2.5,2.4c-0.6,0.6-0.5,1.6,0.1,2.1c0.6,0.5,1.5,0.5,2.1,0l2.5-2.5
		C50.9,12.3,50.9,11.4,50.4,10.8L50.4,10.8z M54.4,27.6h-3.5c-0.8,0-1.5,0.7-1.5,1.5s0.7,1.5,1.5,1.5h3.5c0.8,0,1.5-0.7,1.5-1.5
		S55.2,27.6,54.4,27.6z M13.1,27.5H9.6c-0.8,0-1.5,0.7-1.5,1.5s0.7,1.5,1.5,1.5h3.5c0.8,0,1.5-0.7,1.5-1.5S13.9,27.5,13.1,27.5z
		 M18.3,15.3c0.6-0.6,0.6-1.5,0-2.1l-2.5-2.5c-0.6-0.6-1.5-0.6-2.1,0c-0.6,0.6-0.6,1.5,0,2.1c0,0,0,0,0,0l2.5,2.5
		C16.8,15.8,17.7,15.8,18.3,15.3z"/>
</g>
</svg>
