<?xml version="1.0" encoding="utf-8"?>
<!-- Generator: Adobe Illustrator 24.1.0, SVG Export Plug-In . SVG Version: 6.00 Build 0)  -->
<svg version="1.1" id="Layer_1" xmlns="http://www.w3.org/2000/svg" xmlns:xlink="http://www.w3.org/1999/xlink" x="0px" y="0px"
	 viewBox="0 0 96 94.7" style="enable-background:new 0 0 96 94.7;" xml:space="preserve">
<style type="text/css">
	.st0{fill-rule:evenodd;clip-rule:evenodd;}
</style>
<g transform="scale(1 -1)">
	<g transform="translate(0 -96)">
		<g>
			<path marker-end="none" marker-start="none" class="st0" d="M20.8,10c-0.2,0-0.4,0.1-0.5,0.1h0c0,0,0,0,0,0c0,0,0,0,0,0
				c-0.3,0.1-0.3,0.1,0,0c-0.1,0-0.2,0.1,0,0c-0.5,0.2-0.6,0.3-0.5,0.3c-0.2,0.2-0.4,0.3-0.5,0.4c0,0,0,0,0,0c0,0,0,0,0.1-0.1
				c-0.1,0-0.1,0.1-0.2,0.1c-0.2,0.2-0.3,0.4-0.2,0.4c-0.2,0.3-0.3,0.5-0.3,0.6c0,0,0.1-0.1,0.1-0.3c-0.1,0.1-0.1,0.2-0.1,0.3
				c0,0,0,0,0,0c0,0,0,0,0,0c0,0,0,0,0,0c0,0,0,0,0,0c-0.1,0.2-0.1,0.5-0.1,0.7v64.3c0,0.6,0.2,1.1,0.2,0.9c0.1,0.3,0.3,0.6,0.1,0.2
				c0.2,0.3,0.4,0.5,0.4,0.6c0,0-0.1-0.1-0.1-0.1c0.1,0.2,0.2,0.2,0.1,0.1c0.2,0.2,0.4,0.3,0.2,0.1c0.3,0.2,0.5,0.3,0.5,0.3
				c0.2,0.1,0.1,0,0,0c0.1,0,0.1,0.1,0,0c0.1,0.1,0.2,0.1,0,0l0,0c0.5,0.2,0.6,0.2,0.3,0.1l0.3,0.1l38.6,7c1.5,0.3,2.9-0.9,2.9-2.4
				v-4.6h12.6c1.4,0,2.5-1.1,2.5-2.5V66.2c0-1.4-1.1-2.5-2.5-2.5c-1.4,0-2.5,1.1-2.5,2.5v8H62.2v-6.3h5.3c0.9,0,1.6-0.7,1.6-1.6
				c0-0.9-0.7-1.6-1.6-1.6h-5.3v-2.8h5.3c0.9,0,1.6-0.7,1.6-1.6c0-0.9-0.7-1.6-1.6-1.6h-5.3v-2.8h5.3c0.9,0,1.6-0.7,1.6-1.6
				c0-0.9-0.7-1.6-1.6-1.6h-5.3v-2.8h5.3c0.9,0,1.6-0.7,1.6-1.6c0-0.9-0.7-1.6-1.6-1.6h-5.3v-2.8h5.3c0.9,0,1.6-0.7,1.6-1.6
				c0-0.9-0.7-1.6-1.6-1.6h-5.3v-2.8h5.3c0.9,0,1.6-0.7,1.6-1.6c0-0.9-0.7-1.6-1.6-1.6h-5.3v-2.8h5.3c0.9,0,1.6-0.7,1.6-1.6
				c0-0.9-0.7-1.6-1.6-1.6h-5.3V25h5.3c0.9,0,1.6-0.7,1.6-1.6c0-0.9-0.7-1.6-1.6-1.6h-5.3v-2.3c0-1.2-0.9-2.2-2-2.4l-11.7-2.1h23.9
				v34.5c0,1.4,1.1,2.5,2.5,2.5c1.4,0,2.5-1.1,2.5-2.5v-37c0-1.4-1.1-2.5-2.5-2.5H21.1C20.8,9.9,20.5,10,20.8,10z M19.4,10.7
				L19.4,10.7C19.3,10.7,19.3,10.7,19.4,10.7C19.3,10.7,19.3,10.7,19.4,10.7z M19.4,10.7C19.3,10.7,19.3,10.7,19.4,10.7z M23.6,15.3
				l33.7,6.1v59.3l-33.7-6.1V15.3z M34.1,24.4c-0.2,1.1,0.5,2.1,1.6,2.3l15.7,2.8c1.1,0.2,2.1-0.5,2.3-1.6c0.2-1.1-0.5-2.1-1.6-2.3
				l-15.7-2.8C35.3,22.6,34.3,23.3,34.1,24.4z M27.5,31.6v19.9c0,1.1,0.9,2.1,1.9,2.3l22,4c1.1,0.2,1.9-0.5,1.9-1.6V36.3
				c0-1.1-0.9-2.1-1.9-2.3l-22-4C28.3,29.8,27.5,30.5,27.5,31.6z M72.4,57.5V58c0,1.4,1.1,2.5,2.5,2.5c1.4,0,2.5-1.1,2.5-2.5v-0.5
				c0-1.4-1.1-2.5-2.5-2.5C73.5,55,72.4,56.1,72.4,57.5z M26.6,60.3c-0.2,1.3,0.6,2.6,2,2.9L44.3,66c1.3,0.2,2.6-0.6,2.9-2
				c0.2-1.3-0.6-2.6-2-2.9l-15.7-2.8C28.2,58.1,26.9,59,26.6,60.3z M26.6,67.2c-0.2,1.3,0.6,2.6,2,2.9l22.8,4.1
				c1.3,0.2,2.6-0.6,2.9-2c0.2-1.3-0.6-2.6-2-2.9l-22.8-4.1C28.2,64.9,26.9,65.8,26.6,67.2z"/>
		</g>
	</g>
</g>
</svg>
