<?xml version="1.0" encoding="utf-8"?>
<!-- Generator: Adobe Illustrator 24.1.0, SVG Export Plug-In . SVG Version: 6.00 Build 0)  -->
<svg version="1.1" id="Layer_1" xmlns="http://www.w3.org/2000/svg" xmlns:xlink="http://www.w3.org/1999/xlink" x="0px" y="0px"
	 viewBox="0 0 100 90" style="enable-background:new 0 0 100 90;" xml:space="preserve">
<style type="text/css">
	.st0{fill:#FF9999;}
</style>
<path class="st0" d="M29,35.5c0.6-0.1,1.2-0.3,1.8-0.5c2.8,4.9,5.3,6.6,5.3,6.6c-2-2.8-3.2-5.9-3.6-7.3c0.5-0.3,1.1-0.6,1.6-0.9
	c2.8,4,7.5,4.3,7.5,4.3c-3-0.7-5.2-3.8-6.1-5.3c0.6-0.4,1.1-0.9,1.6-1.4c4.6,3.7,8.7,1.9,8.7,1.9c-3.8,0.1-6.4-1.8-7.6-3
	c2.5-2.9,4.3-6.7,5.2-10.9c-4.6,5.4-10.7,8.8-17.5,8.8S13,24.4,8.4,19c0.9,4.1,2.6,7.7,4.9,10.5c-1,1.1-3.8,3.6-8,3.5
	c0,0,4.3,1.9,9.1-2.2l0,0c0.5,0.5,0.9,1,1.4,1.4c-0.7,1.2-3,4.9-6.4,5.7c0,0,5-0.3,7.7-4.6c0.5,0.3,1,0.7,1.5,0.9
	c-0.4,1.1-1.6,4.5-3.7,7.6c0,0,2.5-1.7,5.4-6.8c0.6,0.2,1.1,0.4,1.7,0.6c-0.1,1.2-0.5,4.5-1.3,7.7c0,0,1.6-3.4,2.8-7.3
	c0.4,0.1,0.9,0.1,1.3,0.2l0.7,7.4l0.8-7.4c0.4,0,0.9,0,1.3-0.1c1.3,3.9,2.8,7.2,2.8,7.2C29.5,40,29.1,36.8,29,35.5z"/>
<path class="st0" d="M95,32.8c-3.8,0.1-6.4-1.8-7.6-3c2.5-2.9,4.3-6.7,5.2-10.9c-4.6,5.4-10.7,8.8-17.5,8.8s-12.9-3.4-17.5-8.8
	c0.9,4.1,2.6,7.7,4.9,10.5c-1,1.1-3.8,3.6-8,3.5c0,0,4.3,1.9,9.1-2.2l0,0c0.5,0.5,0.9,1,1.4,1.4c-0.7,1.2-3,4.9-6.4,5.7
	c0,0,5-0.3,7.7-4.6c0.5,0.3,1,0.7,1.5,0.9c-0.4,1.1-1.6,4.5-3.7,7.6c0,0,2.5-1.7,5.4-6.8c0.6,0.2,1.1,0.4,1.7,0.6
	c-0.1,1.2-0.5,4.5-1.3,7.7c0,0,1.6-3.4,2.8-7.3c0.4,0.1,0.9,0.1,1.3,0.2l0.7,7.4l0.8-7.4c0.4,0,0.9,0,1.3-0.1
	c1.3,3.9,2.8,7.2,2.8,7.2c-0.8-3-1.1-6.2-1.3-7.5c0.6-0.1,1.2-0.3,1.8-0.5c2.8,4.9,5.3,6.6,5.3,6.6c-2-2.8-3.2-5.9-3.6-7.3
	c0.5-0.3,1.1-0.6,1.6-0.9c2.8,4,7.5,4.3,7.5,4.3c-3-0.7-5.2-3.8-6.1-5.3c0.6-0.4,1.1-0.9,1.6-1.4C91,34.6,95,32.8,95,32.8z"/>
<path class="st0" d="M50.1,64.2c-7.7-15.4-22.5,5.5-22.5,5.5s19.5,33.5,45,0C72.6,69.7,57.8,48.8,50.1,64.2z M49.5,73.3
	c-2.9,0-5.7-0.5-8.2-1.2c2.5-0.8,5.2-1.2,8.2-1.2c2.9,0,5.7,0.5,8.2,1.2C55.3,72.9,52.5,73.3,49.5,73.3z"/>
</svg>
