<?xml version="1.0" encoding="utf-8"?>
<!-- Generator: Adobe Illustrator 24.1.0, SVG Export Plug-In . SVG Version: 6.00 Build 0)  -->
<svg version="1.1"
	 id="Layer_1" xmlns:cc="http://creativecommons.org/ns#" xmlns:dc="http://purl.org/dc/elements/1.1/" xmlns:inkscape="http://www.inkscape.org/namespaces/inkscape" xmlns:rdf="http://www.w3.org/1999/02/22-rdf-syntax-ns#" xmlns:sodipodi="http://sodipodi.sourceforge.net/DTD/sodipodi-0.dtd" xmlns:svg="http://www.w3.org/2000/svg"
	 xmlns="http://www.w3.org/2000/svg" xmlns:xlink="http://www.w3.org/1999/xlink" x="0px" y="0px" viewBox="0 0 100 125"
	 style="enable-background:new 0 0 100 125;" xml:space="preserve">
<style type="text/css">
	.st0{fill:#FFCCFF;}
</style>
<g transform="translate(0,-952.36218)">
	<path class="st0" d="M38,968.4l-5,10H15c-3.9,0-7,3.1-7,7v44c0,3.9,3.1,7,7,7h70c3.9,0,7-3.1,7-7v-44c0-3.9-3.1-7-7-7H67l-5-10H38z
		 M50,989.4c9.9,0,18,8.1,18,18s-8.1,18-18,18c-9.9,0-18-8.1-18-18S40.1,989.4,50,989.4z"/>
</g>
</svg>
