<?xml version="1.0" encoding="utf-8"?>
<!-- Generator: Adobe Illustrator 24.1.2, SVG Export Plug-In . SVG Version: 6.00 Build 0)  -->
<svg version="1.1" xmlns="http://www.w3.org/2000/svg" xmlns:xlink="http://www.w3.org/1999/xlink" x="0px" y="0px"
	 viewBox="0 0 100 100.5" style="enable-background:new 0 0 100 100.5;" xml:space="preserve">
<style type="text/css">
	.st0{fill:#63A4D9;}
</style>
<g id="Layer_2">
</g>
<g id="Layer_1">
	<g>
		<path class="st0" d="M5273.1,2400.1v-2c0-2.8-5-4-9.7-4s-9.7,1.3-9.7,4v2c0,1.8,0.7,3.6,2,4.9l5,4.9c0.3,0.3,0.4,0.6,0.4,1v6.4
			c0,0.4,0.2,0.7,0.6,0.8l2.9,0.9c0.5,0.1,1-0.2,1-0.8v-7.2c0-0.4,0.2-0.7,0.4-1l5.1-5C5272.4,2403.7,5273.1,2401.9,5273.1,2400.1z
			 M5263.4,2400c-4.8,0-7.4-1.3-7.5-1.8l0,0c0.1-0.5,2.7-1.8,7.5-1.8s7.3,1.3,7.5,1.8C5270.7,2398.7,5268.2,2400,5263.4,2400z"/>
		<path class="st0" d="M5268.4,2410.3c-0.6,0-1,0.4-1,1s0.4,1,1,1h4.3c0.6,0,1-0.4,1-1s-0.4-1-1-1H5268.4z"/>
		<path class="st0" d="M5272.7,2413.7h-4.3c-0.6,0-1,0.4-1,1s0.4,1,1,1h4.3c0.6,0,1-0.4,1-1
			C5273.7,2414.1,5273.3,2413.7,5272.7,2413.7z"/>
		<path class="st0" d="M5272.7,2417h-4.3c-0.6,0-1,0.4-1,1s0.4,1,1,1h4.3c0.6,0,1-0.4,1-1C5273.7,2417.5,5273.3,2417,5272.7,2417z"
			/>
	</g>
	<g>
		<circle class="st0" cx="28.9" cy="62.8" r="3.2"/>
		<circle class="st0" cx="28.3" cy="55" r="2.1"/>
		<circle class="st0" cx="35.4" cy="57.7" r="2.4"/>
		<circle class="st0" cx="40.8" cy="62" r="2.1"/>
		<circle class="st0" cx="35.6" cy="68.4" r="2.8"/>
		<circle class="st0" cx="71.1" cy="62.8" r="3.2"/>
		<circle class="st0" cx="71.7" cy="55" r="2.1"/>
		<circle class="st0" cx="64.6" cy="57.7" r="2.4"/>
		<circle class="st0" cx="59.2" cy="62" r="2.1"/>
		<circle class="st0" cx="64.4" cy="68.4" r="2.8"/>
		<path class="st0" d="M96.4,52.2c0-5.5-1.3-9.3-3.9-11.7c-0.7-0.6-1.6-1.3-2.9-1.7C81.7,1.9,55,2.5,50.1,2.5
			c-4.8,0-31.7-0.6-39.6,36.2c-1.3,0.5-2.3,1.1-3,1.8c-2.6,2.4-3.9,6.2-3.9,11.7c0,4.4,1,7.6,3.1,9.7C3.4,96.8,17.1,95,34.3,93.4
			c4.8,2.7,10.2,4.1,15.7,4.1c5.6,0,10.9-1.5,15.7-4.1c17.2,1.6,31.1,3.5,27.6-31.5C95.3,59.7,96.4,56.5,96.4,52.2z M85.2,58.3
			c-2.1,0.2-3.8,1.9-3.9,3.9c-1,8.8-6.5,16.8-16.4,23.7c-8.7,6.2-21,6.2-29.7,0c-9.9-7-15.4-15-16.3-23.7c-0.2-2.1-1.9-3.8-3.9-3.9
			c-2.6-0.3-4.4-0.4-4.4-6.1c0-4.5,1-6.1,1.7-6.6c0.1-0.1,0.3-0.3,0.7-0.4c0.3,1.3,1.3,2.4,2.7,2.6c1.9,0.3,3.6-0.9,4-2.8
			c0.6-3.3,1.5-6.2,2.5-8.9c5.7,0.6,14.4-1.4,23.4-5.6c4.6-2.2,8.6-4.7,11.9-7.2c1.4,1.4,2.8,2.8,4.4,4.1c5.8,4.7,11.7,7.7,16.2,8.5
			c1.1,2.8,2,5.8,2.6,9.2c0.3,1.7,1.7,2.8,3.4,2.8c0.2,0,0.4,0,0.6-0.1c1.4-0.2,2.5-1.3,2.7-2.6c0.4,0.1,0.6,0.3,0.7,0.4
			c0.6,0.6,1.7,2.2,1.7,6.6C89.5,57.9,87.7,58.1,85.2,58.3z"/>
	</g>
</g>
</svg>
