<?xml version="1.0" encoding="utf-8"?>
<!-- Generator: Adobe Illustrator 24.1.0, SVG Export Plug-In . SVG Version: 6.00 Build 0)  -->
<svg version="1.1" id="Layer_1" xmlns="http://www.w3.org/2000/svg" xmlns:xlink="http://www.w3.org/1999/xlink" x="0px" y="0px"
	 viewBox="0 0 100 97.8" style="enable-background:new 0 0 100 97.8;" xml:space="preserve">
<path d="M50.1,8.4L50.1,8.4c0,0-0.1,0-0.1,0s-0.1,0-0.1,0v0C23.7,8.5,2.5,29.8,2.5,56c0,1.8,0.1,3.6,0.3,5.4s0.5,3.5,0.9,5.2
	c1.3,5.6,4,10.6,7.7,15.1c0.9,1.1,1.9,2.2,2.9,3.2c1.4,1.3,2.8,2.7,4.4,3.9c1,0.8,3.7,3.1,5.2,2.8c1-0.2,0.6-1.4,0.5-2.4
	c-0.1-1.1-0.4-2.2-0.6-3.3c-2.3-10-1.6-19.7-1.6-29.9c0-4.6,0-9.2,0-13.8c0,0,13.9,0,27.8,0c0.1,0,0.2,0,0.2,0c13.9,0,27.8,0,27.8,0
	c0,4.6,0,9.2,0,13.8c0,10.2,0.7,19.9-1.6,29.9c-0.3,1.1-0.5,2.2-0.6,3.3c-0.1,1-0.5,2.2,0.5,2.4c1.4,0.3,4.1-2,5.2-2.8
	c1.6-1.2,3-2.6,4.4-3.9c1-1,2-2.1,2.9-3.2c3.7-4.5,6.4-9.5,7.7-15.1c0.4-1.7,0.7-3.5,0.9-5.2s0.3-3.6,0.3-5.4
	C97.5,29.8,76.3,8.5,50.1,8.4z"/>
<path d="M65.9,44.2c-1.6,0-3.2,0.2-4.7,0.6c-1.4,0.4-2.8,0.9-4.2,1.4c-1.2,0.5-2.4,1-3.6,1.4c-0.9,0.4-1.9,0.7-3,0.8
	c-1.1,0.1-2.2-0.2-3.2-0.6c-1.2-0.4-2.3-0.9-3.5-1.4c-1.3-0.5-2.7-1.1-4.1-1.5c-1.5-0.4-3.1-0.7-4.6-0.8c-0.3,0-0.6,0-0.8,0
	c-6.9,0-14.1,2.3-14.1,2.3s1.2,12.8,2.1,14.1c1,1.3,5.2,5.6,14.2,5.6S47.2,58.5,47.8,56c0.3-1.2,0.9-2.3,1.8-3.1
	c0.1-0.1,0.2-0.3,0.4-0.3c0.1,0,0.2,0.1,0.3,0.2c0.1,0.1,0.2,0.2,0.4,0.3c0.2,0.2,0.4,0.5,0.6,0.8c0.4,0.5,0.6,1.1,0.8,1.7
	c0,0.1,0.1,0.2,0.1,0.3c0.6,2.4,2.4,10.2,11.5,10.2s13.3-4.3,14.2-5.6c1-1.3,2.1-14.1,2.1-14.1S72.8,44.2,65.9,44.2z"/>
<path d="M52.3,77.8c-0.6-0.7-1.4-0.1-2,0.5c-0.2,0.2-0.5,0.2-0.7,0c-0.6-0.6-1.4-1.2-2-0.5c-1,1.1-6.8,1.8-6.8,1.8s8,2.5,9,2.4
	c0,0,0.1,0,0.1,0c0,0,0.1,0,0.1,0c1,0.1,9-2.4,9-2.4S53.3,78.9,52.3,77.8z"/>
</svg>
